<?xml version="1.0" encoding="utf-8"?>
<!-- Generator: Adobe Illustrator 26.3.1, SVG Export Plug-In . SVG Version: 6.00 Build 0)  -->
<svg version="1.1" id="Layer_1" xmlns="http://www.w3.org/2000/svg" xmlns:xlink="http://www.w3.org/1999/xlink" x="0px" y="0px"
	 viewBox="0 0 30 30" style="enable-background:new 0 0 30 30;" xml:space="preserve">
<style type="text/css">
	.st0{fill-rule:evenodd;clip-rule:evenodd;fill:#FFFFFF;}
	.st1{fill:#1E2E36;}
</style>
<path class="st0" d="M15,30C6.8,30,0.2,23.3,0.2,15C0.2,6.7,6.8,0,15,0c8.2,0,14.8,6.7,14.8,15C29.8,23.3,23.2,30,15,30z"/>
<path class="st1" d="M11.5,14.9c0,0.2,0.1,0.4,0.2,0.6l4.8,5c0.3,0.3,0.8,0.3,1.1,0c0.3-0.3,0.3-0.8,0-1.2l-4.3-4.5l4.3-4.5
	c0.3-0.3,0.3-0.8,0-1.2c-0.3-0.3-0.8-0.3-1.1,0l-4.8,5C11.6,14.4,11.5,14.7,11.5,14.9z"/>
</svg>
