<?xml version="1.0" encoding="utf-8"?>
<!-- Generator: Adobe Illustrator 26.3.1, SVG Export Plug-In . SVG Version: 6.00 Build 0)  -->
<svg version="1.1" id="Layer_1" xmlns="http://www.w3.org/2000/svg" xmlns:xlink="http://www.w3.org/1999/xlink" x="0px" y="0px"
	 viewBox="0 0 32 32" style="enable-background:new 0 0 32 32;" xml:space="preserve">
<style type="text/css">
	.st0{fill:none;stroke:#FFFFFF;}
	.st1{fill:#FFFFFF;}
</style>
<path class="st0" d="M16,31c8.3,0,15-6.7,15-15c0-8.3-6.7-15-15-15C7.7,1,1,7.7,1,16C1,24.3,7.7,31,16,31z"/>
<path class="st1" d="M12.5,15.9c0-0.2,0.1-0.4,0.2-0.6l4.9-5c0.3-0.3,0.8-0.3,1.1,0c0.3,0.3,0.3,0.8,0,1.2l-4.4,4.5l4.4,4.5
	c0.3,0.3,0.3,0.8,0,1.2c-0.3,0.3-0.8,0.3-1.1,0l-4.9-5C12.6,16.3,12.5,16.1,12.5,15.9z"/>
</svg>
