<?xml version="1.0" encoding="utf-8"?>
<!-- Generator: Adobe Illustrator 26.3.1, SVG Export Plug-In . SVG Version: 6.00 Build 0)  -->
<svg version="1.1" id="Layer_1" xmlns="http://www.w3.org/2000/svg" xmlns:xlink="http://www.w3.org/1999/xlink" x="0px" y="0px"
	 viewBox="0 0 100 78" style="enable-background:new 0 0 100 78;" xml:space="preserve">
<style type="text/css">
	.st0{fill:#44C697;}
</style>
<path class="st0" d="M75.9,41.7H24.1c-2.5,0-4.5-2-4.5-4.5V4.6c0-2.5,2-4.5,4.5-4.5h51.8c2.5,0,4.5,2,4.5,4.5v32.5
	C80.4,39.6,78.4,41.7,75.9,41.7z M24.1,2.5c-1.2,0-2.2,1-2.2,2.2v32.5c0,1.2,1,2.2,2.2,2.2h51.8c1.2,0,2.2-1,2.2-2.2V4.6
	c0-1.2-1-2.2-2.2-2.2H24.1z"/>
<path class="st0" d="M75.9,70.9H24.1c-2.5,0-4.5-2-4.5-4.5V43.8c0-2.5,2-4.5,4.5-4.5h51.8c2.5,0,4.5,2,4.5,4.5v22.6
	C80.4,68.9,78.4,70.9,75.9,70.9z M24.1,41.7c-1.2,0-2.2,1-2.2,2.2v22.6c0,1.2,1,2.2,2.2,2.2h51.8c1.2,0,2.2-1,2.2-2.2V43.8
	c0-1.2-1-2.2-2.2-2.2L24.1,41.7L24.1,41.7z"/>
<path class="st0" d="M95.5,70.9H82.6c-2.5,0-4.5-2-4.5-4.5V26.8c0-2.5,2-4.5,4.5-4.5h12.9c2.5,0,4.5,2,4.5,4.5v39.5
	C100,68.9,98,70.9,95.5,70.9z M82.6,24.7c-1.2,0-2.2,1-2.2,2.2v39.5c0,1.2,1,2.2,2.2,2.2h12.9c1.2,0,2.2-1,2.2-2.2V26.8
	c0-1.2-1-2.2-2.2-2.2H82.6z"/>
<path class="st0" d="M17.4,70.9H4.5c-2.5,0-4.5-2-4.5-4.5V26.8c0-2.5,2-4.5,4.5-4.5h12.9c2.5,0,4.5,2,4.5,4.5v39.5
	C21.9,68.9,19.9,70.9,17.4,70.9z M4.5,24.7c-1.2,0-2.2,1-2.2,2.2v39.5c0,1.2,1,2.2,2.2,2.2h12.9c1.2,0,2.2-1,2.2-2.2V26.8
	c0-1.2-1-2.2-2.2-2.2H4.5z"/>
<path class="st0" d="M79.2,56.3H20.8c-0.6,0-1.2-0.5-1.2-1.2c0-0.6,0.5-1.2,1.2-1.2h58.5c0.6,0,1.2,0.5,1.2,1.2S79.9,56.3,79.2,56.3
	z"/>
<path class="st0" d="M11,77.9c-1.9,0-3.6-1.3-4.1-3.2L5.7,70c-0.2-0.6,0.2-1.3,0.9-1.4c0.1,0,0.2,0,0.3,0h8.3c0.6,0,1.2,0.5,1.2,1.2
	c0,0.1,0,0.2,0,0.3l-1.2,4.7C14.6,76.6,12.9,77.9,11,77.9z M8.3,70.9l0.8,3.2c0.3,1,1.3,1.6,2.3,1.4c0.7-0.2,1.2-0.7,1.4-1.4
	l0.8-3.2H8.3z"/>
<path class="st0" d="M89,77.9c-1.9,0-3.6-1.3-4.1-3.2L83.8,70c-0.2-0.6,0.2-1.3,0.9-1.4c0.1,0,0.2,0,0.3,0h8.3
	c0.6,0,1.2,0.5,1.2,1.2c0,0.1,0,0.2,0,0.3l-1.2,4.7C92.7,76.6,91,77.9,89,77.9z M86.4,70.9l0.8,3.2c0.3,1,1.3,1.6,2.3,1.4
	c0.7-0.2,1.2-0.7,1.4-1.4l0.8-3.2L86.4,70.9z"/>
</svg>
