<?xml version="1.0" encoding="utf-8"?>
<!-- Generator: Adobe Illustrator 26.3.1, SVG Export Plug-In . SVG Version: 6.00 Build 0)  -->
<svg version="1.1" id="Layer_1" xmlns="http://www.w3.org/2000/svg" xmlns:xlink="http://www.w3.org/1999/xlink" x="0px" y="0px"
	 viewBox="0 0 82 100" style="enable-background:new 0 0 82 100;" xml:space="preserve">
<style type="text/css">
	.st0{fill:#1E2E36;}
</style>
<path class="st0" d="M75.6,33.8H6.4c-0.6,0-1.2-0.5-1.2-1.2V8.2C5.2,7.6,5.7,7,6.4,7h69.3c0.6,0,1.2,0.5,1.2,1.2v24.3
	C76.8,33.2,76.2,33.8,75.6,33.8z M7.5,31.4h66.9v-22H7.5V31.4z"/>
<path class="st0" d="M70.3,33.8H11.7c-0.6,0-1.2-0.5-1.2-1.2v-19c0-0.6,0.5-1.2,1.2-1.2h58.5c0.6,0,1.2,0.5,1.2,1.2v19
	C71.5,33.2,71,33.8,70.3,33.8z M12.9,31.4h56.2V14.8H12.9V31.4z"/>
<path class="st0" d="M37.5,33.8H15.2c-2.6,0-4.7-2.1-4.7-4.7V17.2c0-2.6,2.1-4.7,4.7-4.7h22.2c2.6,0,4.7,2.1,4.7,4.7v11.9
	C42.2,31.7,40.1,33.8,37.5,33.8z M15.2,14.8c-1.3,0-2.4,1.1-2.4,2.4v11.9c0,1.3,1.1,2.4,2.4,2.4h22.2c1.3,0,2.4-1.1,2.4-2.4V17.2
	c0-1.3-1.1-2.4-2.4-2.4C37.4,14.8,15.2,14.8,15.2,14.8z"/>
<path class="st0" d="M66.8,33.8H44.5c-2.6,0-4.7-2.1-4.7-4.7V17.2c0-2.6,2.1-4.7,4.7-4.7h22.2c2.6,0,4.7,2.1,4.7,4.7v11.9
	C71.5,31.7,69.4,33.8,66.8,33.8z M44.5,14.8c-1.3,0-2.4,1.1-2.4,2.4v11.9c0,1.3,1.1,2.4,2.4,2.4h22.2c1.3,0,2.4-1.1,2.4-2.4V17.2
	c0-1.3-1.1-2.4-2.4-2.4C66.7,14.8,44.5,14.8,44.5,14.8z"/>
<path class="st0" d="M76.4,92.9H5.6c-2.6,0-4.7-2.1-4.7-4.7V36.1c0-2.6,2.1-4.7,4.7-4.7h71c2.6,0,4.7,2.1,4.7,4.7v52.1
	C81.1,90.8,79,92.9,76.4,92.9z M5.6,33.8c-1.3,0-2.4,1.1-2.4,2.4v52.1c0,1.3,1.1,2.4,2.4,2.4h71c1.3,0,2.4-1.1,2.4-2.4V36.1
	c0-1.3-1.1-2.4-2.4-2.4h-71V33.8z"/>
<path class="st0" d="M76.9,9.4H5.1c-2.3,0-4.3-1.9-4.3-4.3V4.3C0.9,1.9,2.8,0,5.1,0h71.9c2.3,0,4.3,1.9,4.3,4.3v0.9
	C81.1,7.5,79.2,9.4,76.9,9.4z M5.1,2.3c-1,0-1.9,0.9-1.9,2v0.9c0,1,0.9,1.9,1.9,1.9h71.9c1.1,0,1.9-0.9,1.9-1.9V4.3
	c0-1.1-0.9-1.9-1.9-1.9H5.1V2.3z"/>
<path class="st0" d="M76.9,100H5.1c-2.3,0-4.3-1.9-4.3-4.3v-0.9c0-2.3,1.9-4.3,4.3-4.3h71.9c2.3,0,4.3,1.9,4.3,4.3v0.9
	C81.1,98.1,79.2,100,76.9,100z M5.1,92.9c-1.1,0-1.9,0.9-1.9,1.9v0.9c0,1.1,0.9,1.9,1.9,1.9h71.9c1.1,0,1.9-0.9,1.9-1.9v-0.9
	c0-1.1-0.9-1.9-1.9-1.9H5.1z"/>
</svg>
