<?xml version="1.0" encoding="utf-8"?>
<!-- Generator: Adobe Illustrator 26.3.1, SVG Export Plug-In . SVG Version: 6.00 Build 0)  -->
<svg version="1.1" id="Layer_1" xmlns="http://www.w3.org/2000/svg" xmlns:xlink="http://www.w3.org/1999/xlink" x="0px" y="0px"
	 viewBox="0 0 68 100" style="enable-background:new 0 0 68 100;" xml:space="preserve">
<style type="text/css">
	.st0{fill:#44C697;}
</style>
<path class="st0" d="M66.8,100H1.2c-0.6,0-1.2-0.5-1.2-1.2V1.2C0.1,0.5,0.6,0,1.2,0h65.5c0.6,0,1.2,0.5,1.2,1.2v97.7
	C67.9,99.5,67.4,100,66.8,100z M2.4,97.7h63.2V2.3H2.4V97.7z"/>
<path class="st0" d="M34,71.5c-0.6,0-1.2-0.4-1.2-0.8V0.8C32.8,0.4,33.4,0,34,0c0.6,0,1.2,0.4,1.2,0.8v69.8
	C35.2,71.1,34.6,71.5,34,71.5z"/>
<path class="st0" d="M34,100H1.2c-0.6,0-1.2-0.5-1.2-1.2V84.6c0-0.6,0.5-1.2,1.2-1.2H34c0.6,0,1.2,0.5,1.2,1.2v14.3
	C35.2,99.5,34.6,100,34,100z M2.4,97.7h30.4V85.7H2.4V97.7z"/>
<path class="st0" d="M34,85.7H1.2c-0.6,0-1.2-0.5-1.2-1.2V70.3c0-0.6,0.5-1.2,1.2-1.2H34c0.6,0,1.2,0.5,1.2,1.2v14.3
	C35.2,85.2,34.6,85.7,34,85.7z M2.4,83.4h30.4V71.5H2.4L2.4,83.4z"/>
<path class="st0" d="M19.3,78.6H16c-0.6,0-1.2-0.5-1.2-1.2s0.5-1.2,1.2-1.2h3.3c0.6,0,1.2,0.5,1.2,1.2S19.9,78.6,19.3,78.6z"/>
<path class="st0" d="M27.1,38.4c-0.6,0-1.2-0.5-1.2-1.2v-2.9c0-0.6,0.5-1.2,1.2-1.2c0.6,0,1.2,0.5,1.2,1.2v2.9
	C28.3,37.8,27.7,38.4,27.1,38.4z"/>
<path class="st0" d="M40.9,52.6c-0.6,0-1.2-0.5-1.2-1.2v-2.9c0-0.6,0.5-1.2,1.2-1.2c0.6,0,1.2,0.5,1.2,1.2v2.9
	C42.1,52.1,41.6,52.6,40.9,52.6z"/>
<path class="st0" d="M19.3,92.9H16c-0.6,0-1.2-0.5-1.2-1.2c0-0.6,0.5-1.2,1.2-1.2h3.3c0.6,0,1.2,0.5,1.2,1.2S19.9,92.9,19.3,92.9z"
	/>
</svg>
