<?xml version="1.0" encoding="utf-8"?>
<!-- Generator: Adobe Illustrator 26.3.1, SVG Export Plug-In . SVG Version: 6.00 Build 0)  -->
<svg version="1.1" id="Layer_1" xmlns="http://www.w3.org/2000/svg" xmlns:xlink="http://www.w3.org/1999/xlink" x="0px" y="0px"
	 viewBox="0 0 100 94" style="enable-background:new 0 0 100 94;" xml:space="preserve">
<style type="text/css">
	.st0{fill:#44C697;}
</style>
<path class="st0" d="M67.8,88.1H32.2c-0.6,0-1.2-0.5-1.2-1.2V59.7c0-0.6,0.5-1.2,1.2-1.2h35.6c0.6,0,1.2,0.5,1.2,1.2V87
	C69,87.6,68.4,88.1,67.8,88.1z M33.4,85.8h33.2V60.9H33.4V85.8z"/>
<path class="st0" d="M67.8,93.1H32.2c-0.6,0-1.2-0.5-1.2-1.2v-5c0-0.6,0.5-1.2,1.2-1.2h35.6c0.6,0,1.2,0.5,1.2,1.2v5
	C69,92.6,68.4,93.1,67.8,93.1z M33.4,90.8h33.2v-2.7H33.4V90.8z"/>
<path class="st0" d="M67.8,60.9H32.2c-0.6,0-1.2-0.5-1.2-1.2V48.2c0-0.6,0.5-1.2,1.2-1.2h35.6c0.6,0,1.2,0.5,1.2,1.2v11.6
	C69,60.4,68.4,60.9,67.8,60.9z M33.4,58.5h33.2v-9.2H33.4V58.5z"/>
<path class="st0" d="M50,57.7c-2.1,0-3.8-1.7-3.8-3.8c0-2.1,1.7-3.8,3.8-3.8c2.1,0,3.8,1.7,3.8,3.8C53.8,56,52.1,57.7,50,57.7z
	 M50,52.5c-0.8,0-1.5,0.7-1.5,1.5c0,0.8,0.7,1.5,1.5,1.5c0.8,0,1.5-0.7,1.5-1.5C51.5,53.1,50.8,52.5,50,52.5z"/>
<path class="st0" d="M59.9,57.7c-2.1,0-3.8-1.7-3.8-3.8c0-2.1,1.7-3.8,3.8-3.8c2.1,0,3.8,1.7,3.8,3.8C63.7,56,62,57.7,59.9,57.7z
	 M59.9,52.5c-0.8,0-1.5,0.7-1.5,1.5c0,0.8,0.7,1.5,1.5,1.5c0.8,0,1.5-0.7,1.5-1.5C61.3,53.1,60.7,52.5,59.9,52.5z"/>
<path class="st0" d="M40.1,57.7c-2.1,0-3.8-1.7-3.8-3.8c0-2.1,1.7-3.8,3.8-3.8s3.8,1.7,3.8,3.8C43.9,56,42.2,57.7,40.1,57.7z
	 M40.1,52.5c-0.8,0-1.5,0.7-1.5,1.5c0,0.8,0.7,1.5,1.5,1.5c0.8,0,1.5-0.7,1.5-1.5C41.6,53.1,40.9,52.5,40.1,52.5z"/>
<path class="st0" d="M60.9,67.7H39.1c-1.5,0-2.8-1.2-2.8-2.8c0-1.5,1.2-2.8,2.8-2.8h21.8c1.5,0,2.8,1.2,2.8,2.8
	C63.7,66.5,62.4,67.7,60.9,67.7C60.9,67.7,60.9,67.7,60.9,67.7z M39.1,64.6c-0.2,0-0.4,0.2-0.4,0.4c0,0.2,0.2,0.4,0.4,0.4h21.8
	c0.2,0,0.4-0.2,0.4-0.4c0-0.2-0.2-0.4-0.4-0.4c0,0,0,0,0,0H39.1z"/>
<path class="st0" d="M59.9,84.4H40.1c-0.6,0-1.2-0.5-1.2-1.2V66.6c0-0.6,0.5-1.2,1.2-1.2h19.7c0.6,0,1.2,0.5,1.2,1.2v16.7
	C61,83.9,60.5,84.4,59.9,84.4z M41.3,82h17.4V67.7H41.3V82z"/>
<path class="st0" d="M42.2,49.3c-0.6,0-1.2-0.5-1.2-1.2v-2.9c0-0.6,0.5-1.2,1.2-1.2s1.2,0.5,1.2,1.2v2.9
	C43.4,48.8,42.8,49.3,42.2,49.3z"/>
<path class="st0" d="M47.7,49.3c-0.6,0-1.2-0.5-1.2-1.2v-1.7H45c-0.6,0-1.2-0.5-1.2-1.2c0-0.6,0.5-1.2,1.2-1.2h2.7
	c0.6,0,1.2,0.5,1.2,1.2v2.9C48.9,48.8,48.4,49.3,47.7,49.3z"/>
<path class="st0" d="M36.6,49.3c-0.6,0-1.2-0.5-1.2-1.2v-2.9c0-0.6,0.5-1.2,1.2-1.2h2.7c0.6,0,1.2,0.5,1.2,1.2
	c0,0.6-0.5,1.2-1.2,1.2h-1.6v1.7C37.8,48.8,37.3,49.3,36.6,49.3z"/>
<path class="st0" d="M57.8,49.3c-0.6,0-1.2-0.5-1.2-1.2v-2.9c0-0.6,0.5-1.2,1.2-1.2s1.2,0.5,1.2,1.2v2.9
	C59,48.8,58.5,49.3,57.8,49.3z"/>
<path class="st0" d="M52.3,49.3c-0.6,0-1.2-0.5-1.2-1.2v-2.9c0-0.6,0.5-1.2,1.2-1.2H55c0.6,0,1.2,0.5,1.2,1.2c0,0.6-0.5,1.2-1.2,1.2
	h-1.6v1.7C53.4,48.8,52.9,49.3,52.3,49.3z"/>
<path class="st0" d="M63.4,49.3c-0.6,0-1.2-0.5-1.2-1.2v-1.7h-1.6c-0.6,0-1.2-0.5-1.2-1.2c0-0.6,0.5-1.2,1.2-1.2h2.7
	c0.6,0,1.2,0.5,1.2,1.2v2.9C64.5,48.8,64,49.3,63.4,49.3z"/>
<path class="st0" d="M73.5,53.6h-2.1c-0.6,0-1.2-0.5-1.2-1.2c0-0.6,0.5-1.2,1.2-1.2h2.1c0.6,0,1.2,0.5,1.2,1.2
	C74.6,53.1,74.1,53.6,73.5,53.6z"/>
<path class="st0" d="M77,93.1h-9.2c-0.6,0-1.2-0.5-1.2-1.2V48.2c0-0.6,0.5-1.2,1.2-1.2H77c0.6,0,1.2,0.5,1.2,1.2V92
	C78.2,92.6,77.7,93.1,77,93.1z M69,90.8h6.9V49.3H69V90.8z"/>
<path class="st0" d="M98.8,71.2H77c-0.6,0-1.2-0.5-1.2-1.2V48.2c0-0.6,0.5-1.2,1.2-1.2h21.8c0.6,0,1.2,0.5,1.2,1.2v21.9
	C100,70.7,99.5,71.2,98.8,71.2z M78.2,68.9h19.5V49.3H78.2V68.9z"/>
<path class="st0" d="M90.7,53.6h-5.6c-0.6,0-1.2-0.5-1.2-1.2c0-0.6,0.5-1.2,1.2-1.2h5.6c0.6,0,1.2,0.5,1.2,1.2
	C91.9,53.1,91.4,53.6,90.7,53.6z"/>
<path class="st0" d="M19.5,53.6h-5.6c-0.6,0-1.2-0.5-1.2-1.2c0-0.6,0.5-1.2,1.2-1.2h5.6c0.6,0,1.2,0.5,1.2,1.2
	C20.7,53.1,20.1,53.6,19.5,53.6z"/>
<path class="st0" d="M98.8,93.1H77c-0.6,0-1.2-0.5-1.2-1.2V70.1c0-0.6,0.5-1.2,1.2-1.2h21.8c0.6,0,1.2,0.5,1.2,1.2V92
	C100,92.6,99.5,93.1,98.8,93.1z M78.2,90.8h19.5V71.2H78.2V90.8z"/>
<path class="st0" d="M90.7,75.5h-5.6c-0.6,0-1.2-0.5-1.2-1.2c0-0.6,0.5-1.2,1.2-1.2h5.6c0.6,0,1.2,0.5,1.2,1.2
	C91.9,75,91.4,75.5,90.7,75.5z"/>
<path class="st0" d="M16.7,93.1H1.2C0.5,93.1,0,92.6,0,92V59.7c0-0.6,0.5-1.2,1.2-1.2h15.5c0.6,0,1.2,0.5,1.2,1.2V92
	C17.9,92.6,17.3,93.1,16.7,93.1z M2.3,90.8h13.2V60.9H2.3V90.8z"/>
<path class="st0" d="M32.2,93.1H16.7c-0.6,0-1.2-0.5-1.2-1.2V59.7c0-0.6,0.5-1.2,1.2-1.2h15.5c0.6,0,1.2,0.5,1.2,1.2V92
	C33.4,92.6,32.9,93.1,32.2,93.1z M17.9,90.8H31V60.9H17.9V90.8z"/>
<path class="st0" d="M20.4,79c-0.6,0-1.2-0.5-1.2-1.2v-3.9c0-0.6,0.5-1.2,1.2-1.2c0.6,0,1.2,0.5,1.2,1.2v3.9
	C21.6,78.4,21,79,20.4,79z"/>
<path class="st0" d="M13,79c-0.6,0-1.2-0.5-1.2-1.2v-3.9c0-0.6,0.5-1.2,1.2-1.2c0.6,0,1.2,0.5,1.2,1.2v3.9C14.2,78.4,13.6,79,13,79z
	"/>
<path class="st0" d="M32.2,60.9h-31c-0.6,0-1.2-0.5-1.2-1.2V48.2C0,47.5,0.5,47,1.2,47h31c0.6,0,1.2,0.5,1.2,1.2v11.6
	C33.4,60.4,32.9,60.9,32.2,60.9z M2.3,58.5H31v-9.2H2.3V58.5z"/>
<path class="st0" d="M66.5,24.8H33.5c-1.4,0-2.5-1.1-2.5-2.5v-3.4c0-1.4,1.1-2.5,2.5-2.5h32.9c1.4,0,2.5,1.1,2.5,2.5v3.4
	C69,23.7,67.8,24.8,66.5,24.8z M33.5,18.8c-0.1,0-0.1,0.1-0.1,0.1v3.4c0,0.1,0.1,0.1,0.1,0.1h32.9c0.1,0,0.1-0.1,0.1-0.1v-3.4
	c0-0.1-0.1-0.1-0.1-0.1H33.5z"/>
<path class="st0" d="M64,18.8H36c-1.4,0-2.5-1.1-2.5-2.5c0-0.8,0.3-1.5,0.9-1.9l0.9-0.7C38.9,10.9,41,6.6,41,2
	c0-0.6,0.5-1.2,1.2-1.2h15.6C58.5,0.9,59,1.4,59,2c0,4.5,2.1,8.8,5.7,11.6l0.9,0.7c1.1,0.8,1.3,2.4,0.4,3.5
	C65.5,18.4,64.8,18.8,64,18.8z M43.3,3.2C43,8,40.6,12.5,36.8,15.5l-0.9,0.7c-0.1,0-0.1,0.1,0,0.2c0,0,0.1,0,0.1,0h28
	c0.1,0,0.1-0.1,0.1-0.1c0,0,0-0.1,0-0.1h0l-0.9-0.7c-3.8-3-6.2-7.5-6.5-12.3L43.3,3.2L43.3,3.2z"/>
<path class="st0" d="M95.2,24.8H76.6c-1.6,0-2.9-1.3-2.9-2.9c0-1.6,1.3-2.9,2.9-2.9h18.6c1.6,0,2.9,1.3,2.9,2.9
	C98.1,23.5,96.8,24.8,95.2,24.8z M76.6,21.2c-0.3,0-0.6,0.3-0.6,0.6c0,0.3,0.3,0.6,0.6,0.6h18.6c0.3,0,0.6-0.3,0.6-0.6
	c0-0.3-0.3-0.6-0.6-0.6H76.6z"/>
<path class="st0" d="M23.4,24.8H4.8c-1.6,0-2.9-1.3-2.9-2.9c0-1.6,1.3-2.9,2.9-2.9h18.6c1.6,0,2.9,1.3,2.9,2.9
	C26.4,23.5,25.1,24.8,23.4,24.8z M4.8,21.2c-0.3,0-0.6,0.3-0.6,0.6c0,0.3,0.3,0.6,0.6,0.6h18.6c0.3,0,0.6-0.3,0.6-0.6
	c0-0.3-0.3-0.6-0.6-0.6H4.8z"/>
<path class="st0" d="M21.6,21.2h-4.8c-0.6,0-1.2-0.5-1.2-1.2v-4c0-0.6,0.5-1.2,1.2-1.2h4.8c0.6,0,1.2,0.5,1.2,1.2v4
	C22.7,20.7,22.2,21.2,21.6,21.2z M18,18.9h2.4v-1.7H18V18.9z"/>
<path class="st0" d="M22.7,17.2h-7c-0.6,0-1.2-0.5-1.2-1.2c0-0.6,0.5-1.2,1.2-1.2h7c0.6,0,1.2,0.5,1.2,1.2
	C23.9,16.7,23.3,17.2,22.7,17.2z"/>
<path class="st0" d="M11.4,21.2H6.7c-0.6,0-1.2-0.5-1.2-1.2v-4c0-0.6,0.5-1.2,1.2-1.2h4.8c0.6,0,1.2,0.5,1.2,1.2v4
	C12.6,20.7,12.1,21.2,11.4,21.2z M7.8,18.9h2.4v-1.7H7.8L7.8,18.9z"/>
<path class="st0" d="M12.6,17.2h-7c-0.6,0-1.2-0.5-1.2-1.2c0-0.6,0.5-1.2,1.2-1.2h7c0.6,0,1.2,0.5,1.2,1.2
	C13.7,16.7,13.2,17.2,12.6,17.2z"/>
<path class="st0" d="M21.6,17.2h-4.8c-0.6,0-1.2-0.5-1.2-1.2v-4c0-0.6,0.5-1.2,1.2-1.2h4.8c0.6,0,1.2,0.5,1.2,1.2v4
	C22.7,16.7,22.2,17.2,21.6,17.2z M18,14.9h2.4v-1.7H18V14.9z"/>
<path class="st0" d="M22.7,13.2h-7c-0.6,0-1.2-0.5-1.2-1.2c0-0.6,0.5-1.2,1.2-1.2h7c0.6,0,1.2,0.5,1.2,1.2
	C23.9,12.7,23.3,13.2,22.7,13.2z"/>
<path class="st0" d="M11.4,17.2H6.7c-0.6,0-1.2-0.5-1.2-1.2v-4c0-0.6,0.5-1.2,1.2-1.2h4.8c0.6,0,1.2,0.5,1.2,1.2v4
	C12.6,16.7,12.1,17.2,11.4,17.2z M7.8,14.9h2.4v-1.7H7.8L7.8,14.9z"/>
<path class="st0" d="M12.6,13.2h-7c-0.6,0-1.2-0.5-1.2-1.2c0-0.6,0.5-1.2,1.2-1.2h7c0.6,0,1.2,0.5,1.2,1.2
	C13.7,12.7,13.2,13.2,12.6,13.2z"/>
<path class="st0" d="M85.9,21.2c-4.2,0-7.6-3.4-7.6-7.6c0-1.4,0.4-2.8,1.2-4c0.2-0.3,0.6-0.5,1-0.5h10.8c0.4,0,0.8,0.2,1,0.5
	c2.2,3.5,1.2,8.2-2.4,10.4C88.7,20.8,87.3,21.2,85.9,21.2z M81.2,11.5c-1.2,2.6-0.1,5.7,2.5,6.9c2.6,1.2,5.7,0.1,6.9-2.5
	c0.7-1.4,0.7-3,0-4.4L81.2,11.5L81.2,11.5z"/>
<path class="st0" d="M85.8,11.5c-0.6,0-1.2-0.5-1.2-1.2V2.7c0-0.6,0.5-1.2,1.2-1.2s1.2,0.5,1.2,1.2v7.5
	C86.9,10.9,86.4,11.5,85.8,11.5z"/>
<path class="st0" d="M85.8,11.5c-0.6,0-1.2-0.5-1.2-1.2c0-0.3,0.1-0.6,0.3-0.8L89,5.4c0.5-0.5,1.2-0.4,1.7,0c0.4,0.5,0.4,1.2,0,1.6
	l-4.1,4.1C86.4,11.3,86.1,11.5,85.8,11.5z"/>
<path class="st0" d="M85.8,11.5c-0.3,0-0.6-0.1-0.8-0.3l-4.1-4.1c-0.5-0.5-0.5-1.2,0-1.7c0.5-0.5,1.2-0.5,1.7,0c0,0,0,0,0,0l4.1,4.1
	c0.5,0.5,0.5,1.2,0,1.7C86.4,11.3,86.1,11.5,85.8,11.5z"/>
<path class="st0" d="M60.9,46.4h-5.7c-3.2,0-5.9-2.6-5.9-5.9v-2.8c0-0.6,0.5-1.2,1.2-1.2h15.1c0.6,0,1.2,0.5,1.2,1.2v2.8
	C66.7,43.8,64.1,46.4,60.9,46.4z M51.6,39v1.6c0,1.9,1.6,3.5,3.5,3.5h5.7c1.9,0,3.5-1.6,3.5-3.5V39H51.6z"/>
<path class="st0" d="M67.8,41h-2.2c-0.6,0-1.2-0.5-1.2-1.2s0.5-1.2,1.2-1.2h2.2c0.6,0,1.2,0.5,1.2,1.2S68.4,41,67.8,41z"/>
<path class="st0" d="M50.1,41h-2.2c-0.6,0-1.2-0.5-1.2-1.2s0.5-1.2,1.2-1.2h2.2c0.6,0,1.2,0.5,1.2,1.2S50.7,41,50.1,41z"/>
<path class="st0" d="M65.6,39H50.4c-0.6,0-1.2-0.5-1.2-1.2c0-0.2,0.1-0.5,0.2-0.7c1.6-2.4,4.9-3.9,8.5-3.9c3.6,0,6.9,1.5,8.5,3.9
	c0.4,0.5,0.2,1.3-0.3,1.6C66,38.9,65.8,39,65.6,39z M53.6,36.6h8.8C59.6,35.3,56.4,35.3,53.6,36.6z"/>
<path class="st0" d="M56.6,35.7c-0.3,0-0.6-0.1-0.8-0.3c-1.4-1.2-1.5-3.3-0.3-4.7c1.2-1.4,3.3-1.5,4.7-0.3c1.4,1.2,1.5,3.3,0.3,4.7
	c-0.1,0.1-0.2,0.2-0.3,0.3c-0.5,0.4-1.2,0.4-1.7-0.1c-0.4-0.5-0.4-1.2,0.1-1.7c0,0,0,0,0,0c0.4-0.4,0.4-1,0.1-1.4
	c-0.4-0.4-1-0.4-1.4-0.1c-0.4,0.4-0.4,1-0.1,1.4c0,0,0.1,0.1,0.1,0.1c0.5,0.4,0.5,1.2,0.1,1.7C57.2,35.6,56.9,35.7,56.6,35.7z"/>
<path class="st0" d="M13.9,49.3H9c-0.6,0-1.2-0.5-1.2-1.2V35.6c0-0.6,0.5-1.2,1.2-1.2h4.9c0.6,0,1.2,0.5,1.2,1.2v12.6
	C15.1,48.8,14.6,49.3,13.9,49.3z M10.1,47h2.6V36.7h-2.6V47z"/>
<path class="st0" d="M9,49.3H4c-0.6,0-1.2-0.5-1.2-1.2V35.6c0-0.6,0.5-1.2,1.2-1.2H9c0.6,0,1.2,0.5,1.2,1.2v12.6
	C10.1,48.8,9.6,49.3,9,49.3z M5.2,47h2.6V36.7H5.2L5.2,47z"/>
<path class="st0" d="M24.8,49.3h-2.2c-2.2,0-4-1.8-4.1-4.1v-4.1c0-0.6,0.5-1.2,1.2-1.2h8c0.6,0,1.2,0.5,1.2,1.2v4.1
	C28.8,47.5,27,49.3,24.8,49.3z M20.9,42.3v2.9c0,0.9,0.8,1.7,1.7,1.7h2.2c0.9,0,1.7-0.8,1.7-1.7v-2.9L20.9,42.3L20.9,42.3z"/>
<path class="st0" d="M28.3,42.3H19c-1.2,0-2.2-1-2.2-2.2v-1.2c0-1.2,1-2.2,2.2-2.2h9.3c1.2,0,2.2,1,2.2,2.2v1.2
	C30.6,41.4,29.6,42.3,28.3,42.3z M19.1,40h9.1v-1h-9.1V40z"/>
<path class="st0" d="M78,49.3h-6c-0.6,0-1.2-0.5-1.2-1.2v-8.2c0-0.6,0.5-1.2,1.2-1.2h6c0.6,0,1.2,0.5,1.2,1.2v8.2
	C79.1,48.8,78.6,49.3,78,49.3z M73.1,47h3.7v-5.9h-3.7V47z"/>
<path class="st0" d="M78,41.1h-6c-0.6,0-1.2-0.5-1.2-1.2v-3.6c0-0.6,0.5-1.2,1.2-1.2h6c0.6,0,1.2,0.5,1.2,1.2v3.6
	C79.1,40.6,78.6,41.1,78,41.1z M73.1,38.7h3.7v-1.3h-3.7V38.7z"/>
<path class="st0" d="M92.4,45.4c-1.9,0-3.4-1.8-3.4-4.2s1.5-4.2,3.4-4.2c1.9,0,3.4,1.8,3.4,4.2S94.4,45.4,92.4,45.4z M92.4,39.3
	c-0.5,0-1.1,0.8-1.1,1.9c0,1.1,0.6,1.9,1.1,1.9c0.5,0,1.1-0.8,1.1-1.9C93.5,40.1,92.9,39.3,92.4,39.3z"/>
<path class="st0" d="M92.4,39.3c-0.5,0-1-0.4-1.1-0.9l-1.8-7.8c-0.4-1.6,0.6-3.2,2.3-3.6c1.6-0.4,3.2,0.6,3.6,2.3
	c0.1,0.4,0.1,0.9,0,1.3l-1.8,7.8C93.5,38.9,93,39.3,92.4,39.3z M92.4,29.2c-0.4,0-0.7,0.3-0.7,0.7c0,0.1,0,0.1,0,0.1l0.6,2.8
	l0.6-2.8c0.1-0.4-0.1-0.7-0.5-0.8C92.5,29.2,92.5,29.2,92.4,29.2z"/>
<path class="st0" d="M84,39.3c-0.5,0-1-0.4-1.1-0.9l-1.8-7.8c-0.4-1.6,0.6-3.2,2.3-3.6c1.6-0.4,3.2,0.6,3.6,2.3
	c0.1,0.4,0.1,0.9,0,1.3l-1.8,7.8C85,38.9,84.6,39.3,84,39.3z M84,29.2c-0.4,0-0.7,0.3-0.7,0.7c0,0.1,0,0.1,0,0.1l0.6,2.8l0.6-2.8
	c0.1-0.4-0.1-0.7-0.5-0.8C84.1,29.2,84.1,29.2,84,29.2z"/>
<path class="st0" d="M86.7,43.1h-5.4c-0.6,0-1.1-0.4-1.2-1c-0.2-1.4,0.2-2.7,1.1-3.8c0.8-0.9,1.8-1.4,2.8-1.4c1,0,2,0.5,2.8,1.4
	c0.9,1,1.3,2.4,1.1,3.8C87.8,42.7,87.3,43.1,86.7,43.1z M82.5,40.7h2.9c-0.1-0.3-0.3-0.6-0.5-0.9c-0.3-0.3-0.7-0.6-1-0.6
	c-0.3,0-0.7,0.2-1,0.6C82.8,40.1,82.6,40.4,82.5,40.7z"/>
</svg>
