<?xml version="1.0" encoding="utf-8"?>
<!-- Generator: Adobe Illustrator 26.3.1, SVG Export Plug-In . SVG Version: 6.00 Build 0)  -->
<svg version="1.1" id="Layer_1" xmlns="http://www.w3.org/2000/svg" xmlns:xlink="http://www.w3.org/1999/xlink" x="0px" y="0px"
	 viewBox="0 0 100 84" style="enable-background:new 0 0 100 84;" xml:space="preserve">
<style type="text/css">
	.st0{fill:#44C697;}
</style>
<path class="st0" d="M46.7,79.2H16.8c-2.5,0-4.5-2-4.5-4.5V63.1c0-2.5,2-4.5,4.5-4.5h29.9c2.5,0,4.5,2,4.5,4.5v11.6
	C51.2,77.2,49.2,79.2,46.7,79.2z M16.8,60.9c-1.2,0-2.2,1-2.2,2.2v11.6c0,1.2,1,2.2,2.2,2.2h29.9c1.2,0,2.2-1,2.2-2.2V63.1
	c0-1.2-1-2.2-2.2-2.2H16.8z"/>
<path class="st0" d="M10.1,79.2H4.5c-2.5,0-4.5-2-4.5-4.5V52.4c0-2.5,2-4.5,4.5-4.5h5.6c2.5,0,4.5,2,4.5,4.5v22.2
	C14.6,77.2,12.6,79.2,10.1,79.2z M4.5,50.3c-1.2,0-2.2,1-2.2,2.2v22.2c0,1.2,1,2.2,2.2,2.2h5.6c1.2,0,2.2-1,2.2-2.2V52.4
	c0-1.2-1-2.2-2.2-2.2H4.5z"/>
<path class="st0" d="M86.6,70H13.4c-0.6,0-1.2-0.5-1.2-1.2c0-0.6,0.5-1.2,1.2-1.2h73.1c0.6,0,1.2,0.5,1.2,1.2S87.2,70,86.6,70z"/>
<path class="st0" d="M46.7,60.9H16.8c-2.5,0-4.5-2-4.5-4.5V38.5c0-2.5,2-4.5,4.5-4.5h29.9c2.5,0,4.5,2,4.5,4.5v17.8
	C51.2,58.9,49.2,60.9,46.7,60.9z M16.8,36.4c-1.2,0-2.2,1-2.2,2.2v17.8c0,1.2,1,2.2,2.2,2.2h29.9c1.2,0,2.2-1,2.2-2.2V38.5
	c0-1.2-1-2.2-2.2-2.2L16.8,36.4z"/>
<path class="st0" d="M83.2,60.9H53.3c-2.5,0-4.5-2-4.5-4.5V38.5c0-2.5,2-4.5,4.5-4.5h29.9c2.5,0,4.5,2,4.5,4.5v17.8
	C87.7,58.9,85.7,60.9,83.2,60.9z M53.3,36.4c-1.2,0-2.2,1-2.2,2.2v17.8c0,1.2,1,2.2,2.2,2.2h29.9c1.2,0,2.2-1,2.2-2.2V38.5
	c0-1.2-1-2.2-2.2-2.2L53.3,36.4z"/>
<path class="st0" d="M83.2,79.2H53.3c-2.5,0-4.5-2-4.5-4.5V63.1c0-2.5,2-4.5,4.5-4.5h29.9c2.5,0,4.5,2,4.5,4.5v11.6
	C87.7,77.2,85.7,79.2,83.2,79.2z M53.3,60.9c-1.2,0-2.2,1-2.2,2.2v11.6c0,1.2,1,2.2,2.2,2.2h29.9c1.2,0,2.2-1,2.2-2.2V63.1
	c0-1.2-1-2.2-2.2-2.2H53.3z"/>
<path class="st0" d="M95.5,79.2h-5.6c-2.5,0-4.5-2-4.5-4.5V52.4c0-2.5,2-4.5,4.5-4.5h5.6c2.5,0,4.5,2,4.5,4.5v22.2
	C100,77.2,98,79.2,95.5,79.2z M89.9,50.3c-1.2,0-2.2,1-2.2,2.2v22.2c0,1.2,1,2.2,2.2,2.2h5.6c1.2,0,2.2-1,2.2-2.2V52.4
	c0-1.2-1-2.2-2.2-2.2H89.9z"/>
<path class="st0" d="M52.7,60.9h-5.5c-0.6,0-1.2-0.5-1.2-1.2c0-0.6,0.5-1.2,1.2-1.2h5.5c0.6,0,1.2,0.5,1.2,1.2
	C53.9,60.4,53.4,60.9,52.7,60.9z"/>
<path class="st0" d="M71.5,30.6H28.5c-0.6,0-1.2-0.5-1.2-1.2V1.6c0-0.6,0.5-1.2,1.2-1.2h42.9c0.6,0,1.2,0.5,1.2,1.2v27.8
	C72.6,30.1,72.1,30.6,71.5,30.6z M29.7,28.3h40.6V2.8H29.7V28.3z"/>
<path class="st0" d="M67.5,26.7H32.5c-0.6,0-1.2-0.5-1.2-1.2v-20c0-0.6,0.5-1.2,1.2-1.2h35.1c0.6,0,1.2,0.5,1.2,1.2v20
	C68.7,26.2,68.2,26.7,67.5,26.7z M33.6,24.4h32.8V6.7H33.6V24.4z"/>
<path class="st0" d="M36.7,22.4c-0.6,0-1.2-0.5-1.2-1.2c0-0.3,0.1-0.6,0.3-0.8l6-6c0.5-0.5,1.2-0.5,1.7,0l3.7,3.7
	c0.5,0.5,0.5,1.2,0,1.7c-0.5,0.5-1.2,0.5-1.7,0l-2.8-2.8l-5.2,5.2C37.3,22.3,37,22.4,36.7,22.4z"/>
<path class="st0" d="M63.3,22.4c-0.3,0-0.6-0.1-0.8-0.3c-1.4-1.4-2.9-2.9-4.3-4.3c-1.6-1.6-3.2-3.2-4.8-4.8l-0.8-0.8
	c-0.2-0.2-0.5-0.5-0.7-0.7L45.4,18c-0.5,0.5-1.2,0.5-1.7,0c-0.5-0.5-0.5-1.2,0-1.7L51.1,9c0.2-0.2,0.5-0.3,0.8-0.3h0
	c0.3,0,0.6,0.1,0.8,0.3c0.5,0.5,1,1,1.5,1.5l0.8,0.8c1.6,1.6,3.2,3.2,4.8,4.8c1.4,1.4,2.9,2.9,4.3,4.3c0.5,0.5,0.5,1.2,0,1.7
	C64,22.3,63.7,22.4,63.3,22.4z"/>
<path class="st0" d="M59.1,18.1c-0.3,0-0.6-0.1-0.8-0.3c-1.6-1.6-3.2-3.2-4.8-4.8c-0.3-0.3-0.4-0.8-0.3-1.3C54.2,9.2,57,8,59.5,9
	c2.5,1,3.7,3.9,2.7,6.3c-0.5,1.2-1.5,2.2-2.7,2.7C59.4,18.1,59.2,18.1,59.1,18.1z M55.7,11.9c1.2,1.2,2.4,2.4,3.5,3.5
	c1.1-0.9,1.2-2.5,0.4-3.5c-0.9-1.1-2.5-1.2-3.5-0.4C55.9,11.7,55.8,11.8,55.7,11.9z"/>
<path class="st0" d="M92.7,83.5c-1.4,0-2.7-1-3-2.3L89,78.3c-0.2-0.6,0.2-1.3,0.9-1.4c0.1,0,0.2,0,0.3,0h5.2c0.6,0,1.2,0.5,1.2,1.2
	c0,0.1,0,0.2,0,0.3l-0.7,2.9C95.3,82.6,94.1,83.5,92.7,83.5z M91.6,79.2l0.4,1.5c0.1,0.4,0.5,0.6,0.9,0.5c0.3-0.1,0.5-0.3,0.5-0.5
	l0.4-1.5L91.6,79.2z"/>
<path class="st0" d="M7.3,83.5c-1.4,0-2.7-1-3-2.3l-0.7-2.9c-0.2-0.6,0.2-1.3,0.9-1.4c0.1,0,0.2,0,0.3,0h5.2c0.6,0,1.2,0.5,1.2,1.2
	c0,0.1,0,0.2,0,0.3l-0.7,2.9C10,82.6,8.7,83.5,7.3,83.5z M6.2,79.2l0.4,1.5c0.1,0.4,0.5,0.6,0.9,0.5C7.7,81.1,8,80.9,8,80.6l0.4-1.5
	L6.2,79.2z"/>
</svg>
