<?xml version="1.0" encoding="utf-8"?>
<!-- Generator: Adobe Illustrator 26.3.1, SVG Export Plug-In . SVG Version: 6.00 Build 0)  -->
<svg version="1.1" id="Layer_1" xmlns="http://www.w3.org/2000/svg" xmlns:xlink="http://www.w3.org/1999/xlink" x="0px" y="0px"
	 viewBox="0 0 100 88" style="enable-background:new 0 0 100 88;" xml:space="preserve">
<style type="text/css">
	.st0{fill:#44C697;}
</style>
<path class="st0" d="M93.5,36.1H6.5c-0.6,0-1.2-0.5-1.2-1.2V9.4c0-0.6,0.5-1.2,1.2-1.2h87.1c0.6,0,1.2,0.5,1.2,1.2v25.5
	C94.7,35.5,94.2,36.1,93.5,36.1z M7.6,33.7h84.7V10.6H7.6V33.7z"/>
<path class="st0" d="M93.5,61.5H6.5c-0.6,0-1.2-0.5-1.2-1.2V34.9c0-0.6,0.5-1.2,1.2-1.2h87.1c0.6,0,1.2,0.5,1.2,1.2v25.5
	C94.7,61,94.2,61.5,93.5,61.5z M7.6,59.2h84.7V36.1H7.6V59.2z"/>
<path class="st0" d="M93.5,87H6.5c-0.6,0-1.2-0.5-1.2-1.2V60.4c0-0.6,0.5-1.2,1.2-1.2h87.1c0.6,0,1.2,0.5,1.2,1.2v25.5
	C94.7,86.5,94.2,87,93.5,87z M7.6,84.7h84.7V61.5H7.6V84.7z"/>
<path class="st0" d="M52.2,23.3h-4.4c-0.6,0-1.2-0.5-1.2-1.2c0-0.6,0.5-1.2,1.2-1.2h4.4c0.6,0,1.2,0.5,1.2,1.2
	C53.4,22.8,52.8,23.3,52.2,23.3z"/>
<path class="st0" d="M52.2,48.8h-4.4c-0.6,0-1.2-0.5-1.2-1.2c0-0.6,0.5-1.2,1.2-1.2h4.4c0.6,0,1.2,0.5,1.2,1.2
	C53.4,48.3,52.8,48.8,52.2,48.8z"/>
<path class="st0" d="M52.2,74.3h-4.4c-0.6,0-1.2-0.5-1.2-1.2s0.5-1.2,1.2-1.2h4.4c0.6,0,1.2,0.5,1.2,1.2
	C53.4,73.8,52.8,74.3,52.2,74.3z"/>
<path class="st0" d="M96.9,10.6H3.1C1.4,10.6,0,9.2,0,7.5V4.1C0,2.4,1.4,1,3.1,1h93.7c1.7,0,3.1,1.4,3.1,3.1v3.4
	C100,9.2,98.6,10.6,96.9,10.6z M3.1,3.3c-0.4,0-0.8,0.3-0.8,0.8v3.4c0,0.4,0.3,0.8,0.8,0.8h93.7c0.4,0,0.8-0.3,0.8-0.8V4.1
	c0-0.4-0.3-0.8-0.8-0.8H3.1z"/>
</svg>
